<?xml version="1.0" standalone="no"?>
<!DOCTYPE svg PUBLIC "-//W3C//DTD SVG 20010904//EN"
 "http://www.w3.org/TR/2001/REC-SVG-20010904/DTD/svg10.dtd">
<svg version="1.0" xmlns="http://www.w3.org/2000/svg"
 width="200.000000pt" height="189.000000pt" viewBox="0 0 200.000000 189.000000"
 preserveAspectRatio="xMidYMid meet">

<style type="text/css">
    path {
        fill: white;
    }
</style>

<!-- Black background rectangle -->
<rect width="100%" height="100%" fill="black" />

<g transform="translate(0.000000,189.000000) scale(0.100000,-0.100000)"
fill="#000000" stroke="none" >
<path d="M605 1858 c-422 -186 -668 -635 -591 -1078 59 -337 270 -613 573
-752 l63 -28 349 0 350 0 68 32 c511 236 727 844 479 1348 -107 218 -295 394
-515 484 l-64 26 -321 0 -321 -1 -70 -31z m633 -77 c310 -90 551 -348 617
-661 8 -39 15 -122 15 -184 0 -176 -45 -327 -142 -478 -16 -27 -33 -48 -37
-48 -3 0 -19 23 -36 51 -67 114 -198 218 -327 260 -69 23 -85 24 -333 24 -247
0 -263 -1 -325 -23 -36 -13 -90 -38 -120 -55 -67 -38 -164 -136 -205 -205 -16
-29 -33 -52 -37 -52 -17 0 -109 170 -138 258 -29 85 -34 113 -38 232 -7 200
25 329 122 495 45 76 174 213 249 264 99 67 230 120 357 145 14 2 88 3 165 1
106 -2 158 -8 213 -24z"/>
<path d="M942 1559 c-211 -28 -361 -251 -308 -459 74 -286 423 -384 631 -175
225 224 87 606 -230 637 -22 2 -64 1 -93 -3z"/>
</g>
</svg>
